<?xml version="1.0" encoding="UTF-8" standalone="no"?><!-- Generator: Gravit.io --><svg xmlns="http://www.w3.org/2000/svg" xmlns:xlink="http://www.w3.org/1999/xlink" style="isolation:isolate" viewBox="0 0 1366 290" width="1366pt" height="290pt"><defs><clipPath id="_clipPath_5wrJCSCBzWdVFrlUJQzsWs9sd0GXjshf"><rect width="1366" height="290"/></clipPath></defs><g clip-path="url(#_clipPath_5wrJCSCBzWdVFrlUJQzsWs9sd0GXjshf)"><path d=" M 0 0 Q 533.348 0 1366.639 0 L 1366.639 260.643 Q 1175.268 193.733 673.893 260.643 Q 250.505 317.145 0 260.643 Q 0 101.719 0 0 Z " fill="rgb(255,102,2)"/><path d=" M 281.303 101.301 C 266.615 98.746 238.516 75.756 233.307 70.4 C 213.61 48.934 187.359 40.44 169.128 62.385 C 151.52 90.398 156.999 122.903 169.128 147.161 C 186.11 181.126 218.443 227.209 252.326 233.166 C 282.784 240.781 333.432 191.943 348.18 167.66 C 361.127 145.786 393.061 103.061 363.647 92.031 C 328.717 90.193 337.763 107.119 295.981 103.678 C 294.57 103.293 282.63 101.704 281.303 101.301 Z " fill="rgb(255,155,54)"/><path d=" M 391.304 145.595 C 393.926 132.993 394.672 122.843 404.585 111.035 C 412.02 104.476 422.964 103.506 430.835 111.378 C 436.333 116.875 441.029 125.467 434.847 137.049 C 429.658 146.167 419.649 151.444 418 153.094 C 413.915 156.517 405.43 158.325 401.67 159.578 C 400.326 160.026 392.486 159.724 390.882 157.683 C 389.425 155.059 391.028 149.374 391.32 145.73" fill="rgb(255,155,54)"/></g></svg>